<?xml version="1.0" encoding="utf-8"?>
<!-- Generator: Adobe Illustrator 24.1.0, SVG Export Plug-In . SVG Version: 6.00 Build 0)  -->
<svg version="1.1" id="Layer_1" xmlns="http://www.w3.org/2000/svg" xmlns:xlink="http://www.w3.org/1999/xlink" x="0px" y="0px"
	 viewBox="0 0 299.5 72.4" style="enable-background:new 0 0 299.5 72.4;" xml:space="preserve">
<style type="text/css">
	.st0{fill:#FFFFFF;stroke:#231F20;stroke-width:3;stroke-miterlimit:10;}
</style>
<g>
	<circle class="st0" cx="36.2" cy="36.2" r="34.7"/>
	<path class="st0" d="M17.1,37.1c0,10.6,8.6,19.2,19.2,19.2c10.6,0,19.2-8.6,19.2-19.2"/>
	<g>
		<path d="M125.4,66.2l-3.2-9.3H97.5l-3.1,9.3h-8.3L107,5.3h5.7l21,60.8H125.4z M110,18.3l-10,31.4h19.8L110,18.3z"/>
		<path d="M135.8,5.3h7.6v60.8h-7.6V5.3z"/>
		<path d="M159.2,66.2h-7.6V5.3h7.6v28.2c2.4-4.5,7.4-7.8,14.2-7.8c11.5,0,19.9,9.6,19.9,20.8c0,11-8.3,20.7-19.9,20.7
			c-6.8,0-11.7-3.3-14.2-7.8V66.2z M185.7,46.4c0-7.5-5.1-14-13.2-14c-8,0-13.3,6.3-13.3,14s5.3,13.9,13.3,13.9
			C180.6,60.3,185.7,53.9,185.7,46.4z"/>
		<path d="M203.7,5.6c3.4,0,6.1,2.8,6.1,6.2c0,3.3-2.7,6-6.1,6s-6.1-2.7-6.1-6C197.6,8.4,200.3,5.6,203.7,5.6z M200,26.7h7.5v39.5
			H200V26.7z"/>
		<path d="M217.3,26.7h7.6v7c2.3-4.8,7.1-8,14-8c5,0,9.1,1.7,11.7,5.2c2.2,3,3,6.5,3,12v23.3h-7.6V45.2c0-7.3-2.7-12.9-9.9-12.9
			c-7.7,0-11.3,6.4-11.3,13.5v20.3h-7.6V26.7z"/>
		<path d="M258,46.4c0-11.2,8.2-20.8,20.8-20.8c12.5,0,20.8,9.6,20.8,20.8c0,11.1-8.2,20.7-20.8,20.7C266,67.1,258,57.6,258,46.4z
			 M292,46.4c0-7.6-5.2-14-13.3-14s-13.3,6.4-13.3,14s5.2,13.9,13.3,13.9S292,54,292,46.4z"/>
	</g>
	<g>
		<path d="M17.7,20.9c3.1,0,5.6,2.5,5.6,5.6c0,3-2.5,5.5-5.6,5.5s-5.6-2.5-5.6-5.5C12.2,23.4,14.6,20.9,17.7,20.9z"/>
		<path d="M54.7,20.9c3.1,0,5.6,2.5,5.6,5.6c0,3-2.5,5.5-5.6,5.5s-5.6-2.5-5.6-5.5C49.1,23.4,51.6,20.9,54.7,20.9z"/>
	</g>
</g>
</svg>
